<?xml version="1.0" encoding="utf-8"?>
<!-- Generator: Adobe Illustrator 28.1.0, SVG Export Plug-In . SVG Version: 6.00 Build 0)  -->
<svg version="1.1" id="레이어_1" xmlns="http://www.w3.org/2000/svg" xmlns:xlink="http://www.w3.org/1999/xlink" x="0px"
	 y="0px" viewBox="0 0 24 24" style="enable-background:new 0 0 24 24;" xml:space="preserve">
<style type="text/css">
	.st0{fill:#FFFFFF;}
</style>
<path class="st0" d="M11.7,18c-1.6-0.1-2.9-0.7-4-1.9S6,13.6,6,12c0-1.7,0.6-3.1,1.8-4.3S10.3,6,12,6c1.6,0,3,0.6,4.1,1.7
	c1.2,1.1,1.8,2.4,1.9,4.1l-2.1-0.6c-0.2-0.9-0.7-1.6-1.4-2.2C13.8,8.3,12.9,8,12,8c-1.1,0-2,0.4-2.8,1.2S8,10.9,8,12
	c0,0.9,0.3,1.8,0.9,2.5s1.3,1.2,2.2,1.4L11.7,18z M12.9,22c-0.2,0-0.3,0-0.5,0H12c-1.4,0-2.7-0.3-3.9-0.8S5.8,20,4.9,19.1
	c-0.9-0.9-1.6-2-2.1-3.2S2,13.4,2,12s0.3-2.7,0.8-3.9S4,5.8,4.9,4.9s2-1.6,3.2-2.1S10.6,2,12,2s2.7,0.3,3.9,0.8s2.3,1.2,3.2,2.1
	s1.6,2,2.1,3.2C21.7,9.3,22,10.6,22,12v0.4c0,0.1,0,0.3,0,0.4l-2-0.6V12c0-2.2-0.8-4.1-2.3-5.7C16.1,4.8,14.2,4,12,4
	S7.9,4.8,6.3,6.3S4,9.8,4,12s0.8,4.1,2.3,5.7C7.9,19.2,9.8,20,12,20h0.3L12.9,22z M20.5,22.5l-4.3-4.3L15,22l-3-10l10,3l-3.8,1.2
	l4.3,4.3L20.5,22.5z"/>
</svg>
